<?xml version="1.0" encoding="utf-8"?>
<!-- Generator: Adobe Illustrator 18.1.1, SVG Export Plug-In . SVG Version: 6.00 Build 0)  -->
<!DOCTYPE svg PUBLIC "-//W3C//DTD SVG 1.1//EN" "http://www.w3.org/Graphics/SVG/1.1/DTD/svg11.dtd">
<svg version="1.1" id="Layer_1" xmlns="http://www.w3.org/2000/svg" xmlns:xlink="http://www.w3.org/1999/xlink" x="0px" y="0px"
	 viewBox="0 0 40 40" enable-background="new 0 0 40 40" xml:space="preserve">
<g id="Layer_1_1_" display="none">
	<path display="inline" fill="none" stroke="#89360A" stroke-width="1.3999" stroke-miterlimit="10" d="M38.8,20
		c0,10.4-8.4,18.8-18.8,18.8S1.2,30.4,1.2,20S9.6,1.2,20,1.2S38.8,9.6,38.8,20"/>
	<path display="inline" fill="#89360A" d="M24.5,17.3h-3v-2c0,0-0.1-1.1,1.2-1.1h1.9v-3.3h-3.3c0,0-3.8-0.2-3.8,4.3v2.2h-2v3.2h2
		v9.8h4v-9.8h2.7L24.5,17.3z"/>
</g>
<g id="Layer_2" display="none">
	<path display="inline" fill="none" stroke="#89360A" stroke-width="1.3999" stroke-miterlimit="10" d="M38.8,20
		c0,10.4-8.4,18.8-18.8,18.8S1.2,30.4,1.2,20S9.6,1.2,20,1.2S38.8,9.6,38.8,20"/>
	<path display="inline" fill="#89360A" d="M30,13.8c-0.7,0.3-1.5,0.5-2.4,0.6c0.8-0.5,1.5-1.3,1.8-2.3c-0.8,0.5-1.7,0.8-2.6,1
		c-0.7-0.8-1.8-1.3-3-1.3c-2.3,0-4.1,1.8-4.1,4.1c0,0.3,0,0.6,0.1,0.9c-3.4-0.2-6.4-1.8-8.5-4.3c-0.4,0.6-0.6,1.3-0.6,2.1
		c0,1.4,0.7,2.7,1.8,3.4c-0.7,0-1.3-0.2-1.9-0.5c0,0,0,0,0,0.1c0,2,1.4,3.6,3.3,4c-0.3,0.1-0.7,0.1-1.1,0.1c-0.3,0-0.5,0-0.8-0.1
		c0.5,1.6,2,2.8,3.8,2.8c-1.4,1.1-3.2,1.8-5.1,1.8c-0.3,0-0.7,0-1-0.1c1.8,1.2,4,1.8,6.3,1.8c7.5,0,11.7-6.3,11.7-11.7
		c0-0.2,0-0.4,0-0.5C28.8,15.3,29.4,14.6,30,13.8z"/>
</g>
<g id="Layer_3" display="none">
	<path display="inline" fill="none" stroke="#89360A" stroke-width="1.3999" stroke-miterlimit="10" d="M38.8,20
		c0,10.4-8.4,18.8-18.8,18.8S1.2,30.4,1.2,20S9.6,1.2,20,1.2S38.8,9.6,38.8,20"/>
	<g display="inline">
		<path fill="#89360A" d="M26.9,18.6h-1.6c0.1,0.4,0.2,0.9,0.2,1.4c0,3.1-2.5,5.5-5.5,5.5c-3.1,0-5.5-2.5-5.5-5.5
			c0-0.5,0.1-0.9,0.2-1.4h-1.6v7.6c0,0.4,0.3,0.7,0.7,0.7h12.5c0.4,0,0.7-0.3,0.7-0.7v-7.6H26.9z M26.9,13.8c0-0.4-0.3-0.7-0.7-0.7
			h-2.1c-0.4,0-0.7,0.3-0.7,0.7v2.1c0,0.4,0.3,0.7,0.7,0.7h2.1c0.4,0,0.7-0.3,0.7-0.7V13.8z M20,16.5c-1.9,0-3.5,1.5-3.5,3.5
			c0,1.9,1.5,3.5,3.5,3.5s3.5-1.6,3.5-3.5S21.9,16.5,20,16.5 M26.9,29H13.1C12,29,11,28.1,11,26.9V13.1c0-1.1,0.9-2.1,2.1-2.1h13.8
			c1.1,0,2.1,0.9,2.1,2.1v13.8C29,28.1,28.1,29,26.9,29"/>
	</g>
</g>
<g id="Layer_4" display="none">
	<path display="inline" fill="#89360A" d="M27.1,19.2l-11.4-8.6c-0.4-0.2-0.8-0.1-1,0.3l-0.1,0.2c-0.2,0.4-0.1,0.8,0.2,1l10.4,7.8
		l-10.3,8c-0.3,0.2-0.4,0.6-0.3,1l0.1,0.2c0.1,0.3,0.3,0.4,0.6,0.4c0.1,0,0.3,0,0.4-0.2L27,20.5c0.2-0.1,0.3-0.4,0.3-0.6
		S27.3,19.4,27.1,19.2z"/>
	<path display="inline" fill="none" stroke="#89360A" stroke-width="1.3999" stroke-miterlimit="10" d="M38.8,20
		c0,10.4-8.4,18.8-18.8,18.8S1.2,30.4,1.2,20S9.6,1.2,20,1.2S38.8,9.6,38.8,20"/>
</g>
<g id="Layer_5" display="none">
	<path display="inline" fill="#89360A" d="M12.9,19.2l11.4-8.6c0.4-0.2,0.8-0.1,1,0.3l0.1,0.2c0.2,0.4,0.1,0.8-0.2,1l-10.4,7.8
		l10.3,8c0.3,0.2,0.4,0.6,0.3,1l-0.1,0.2c-0.1,0.3-0.3,0.4-0.6,0.4c-0.1,0-0.3,0-0.4-0.2L13,20.5c-0.2-0.1-0.3-0.4-0.3-0.6
		S12.7,19.4,12.9,19.2z"/>
	<path display="inline" fill="none" stroke="#89360A" stroke-width="1.3999" stroke-miterlimit="10" d="M1.2,20
		c0,10.4,8.4,18.8,18.8,18.8S38.8,30.4,38.8,20S30.4,1.2,20,1.2S1.2,9.6,1.2,20"/>
</g>
<g id="Layer_6">
	<path fill="#89360A" d="M20.8,27.1l8.6-11.4c0.2-0.4,0.1-0.8-0.3-1l-0.2-0.1c-0.4-0.2-0.8-0.1-1,0.2l-7.8,10.4l-8-10.3
		c-0.2-0.3-0.6-0.4-1-0.3l-0.2,0.1c-0.3,0.1-0.4,0.3-0.4,0.6c0,0.1,0,0.3,0.2,0.4L19.5,27c0.1,0.2,0.4,0.3,0.6,0.3
		S20.6,27.3,20.8,27.1z"/>
</g>
</svg>
