<?xml version="1.0" encoding="utf-8"?>
<!-- Generator: Adobe Illustrator 18.1.1, SVG Export Plug-In . SVG Version: 6.00 Build 0)  -->
<!DOCTYPE svg PUBLIC "-//W3C//DTD SVG 1.1//EN" "http://www.w3.org/Graphics/SVG/1.1/DTD/svg11.dtd">
<svg version="1.1" id="Layer_1" xmlns="http://www.w3.org/2000/svg" xmlns:xlink="http://www.w3.org/1999/xlink" x="0px" y="0px"
	 viewBox="0 0 294 14" enable-background="new 0 0 294 14" xml:space="preserve">
<g>
	<g>
		<path d="M10.4,1.3C10.6,2,10.8,3,11,4.2c0,0-0.1,0.1-0.1,0.1c0,0-0.1,0-0.1-0.1C10.3,3.5,9.9,3,9.5,2.7S8.7,2.1,8.3,1.9
			s-1.1-0.2-2-0.2c-0.9,0-1.6,0.1-2.1,0.2c0,0.1-0.1,0.2-0.1,0.3c0,0,0,0.1,0,0.2C4,2.9,4,4.2,4,6.4c0,0.1,0,0.2,0,0.4
			c0.5,0,0.8,0,1,0c0.8,0,1.3-0.1,1.7-0.3C7,6.2,7.3,5.7,7.6,5c0-0.1,0.1-0.2,0.2-0.2c0.1,0,0.2,0.1,0.2,0.3l0,0.4
			c0,0.5-0.1,1-0.1,1.5c0,0.8,0,1.6,0,2.3c0,0.2-0.1,0.3-0.2,0.3c-0.1,0-0.1-0.1-0.2-0.2C7.4,8.6,7.1,8,6.7,7.7
			C6.3,7.4,5.4,7.2,4,7.2c0,0.4,0,1.2,0,2.2c0,1.3,0,2.1,0.1,2.5s0.3,0.6,0.7,0.8C5.1,12.9,5.7,13,6.6,13c2.4,0,3.9-0.8,4.6-2.5
			c0.1-0.2,0.2-0.3,0.3-0.3c0.1,0,0.1,0.1,0.1,0.2c0,0.1,0,0.2,0,0.2c0,0.1-0.1,0.6-0.3,1.3c0,0.2-0.1,0.6-0.4,1.4l-3.9,0
			c-0.6,0-1.4,0-2.4-0.1c-1.1,0-2-0.1-2.8-0.1c-0.8,0-1.3,0-1.3-0.1c0,0-0.1-0.1-0.1-0.1c0-0.1,0.1-0.2,0.3-0.2
			c0.7,0,1.1-0.2,1.3-0.5c0.2-0.4,0.3-1.2,0.3-2.6l0-1.9l0-1.8c0-0.4,0-1-0.1-2c0-1-0.1-1.6-0.1-1.7C2.2,2.2,2.1,2.1,2,2
			C1.8,1.8,1.5,1.7,1,1.5c-0.2,0-0.2-0.1-0.2-0.2c0-0.1,0.1-0.2,0.3-0.2l1.9,0.1c0.7,0,2.3,0,4.9,0C9.5,1.3,10.4,1.3,10.4,1.3z"/>
		<path d="M19.8,1h0.4c0.7,1.4,1.6,3.8,2.8,7.2c0.8,2.2,1.3,3.5,1.6,4c0.3,0.5,0.8,0.8,1.4,0.8c0.2,0,0.3,0.1,0.3,0.2
			c0,0.1-0.1,0.1-0.2,0.1l-0.1,0c-0.6,0-1.3-0.1-2.2-0.1c-1.3,0-2.2,0-2.6,0.1c-0.2,0-0.3-0.1-0.3-0.2c0-0.1,0.1-0.1,0.2-0.1
			c0.5,0,0.9-0.1,1.1-0.3c0.2-0.1,0.3-0.3,0.3-0.6c0-0.3-0.2-0.9-0.6-2l-0.5-1.6c-0.3,0-1.7,0-4.3,0.1c-0.6,1.7-1,2.8-1,3.2
			c0,0.4,0.2,0.7,0.5,0.8s0.6,0.3,0.9,0.3c0.2,0,0.3,0.1,0.3,0.2c0,0,0,0.1-0.1,0.1c-1,0-1.6-0.1-1.8-0.1c-1,0-1.7,0-2.1,0
			c-0.2,0-0.3-0.1-0.3-0.2c0-0.1,0.1-0.2,0.3-0.2c0.7-0.1,1.2-0.6,1.6-1.4s1-2.4,1.8-4.7C18.1,4.8,18.9,2.9,19.8,1z M19.4,3
			c-0.6,1.2-1.2,2.9-2,5.1c0.6,0,1.1,0,1.4,0l2.6,0c-0.2-0.6-0.5-1.5-1-2.5C19.9,4.3,19.6,3.4,19.4,3z"/>
		<path d="M32.1,7.1c0.6-0.4,1.1-0.8,1.4-1.1c0.3-0.4,0.9-0.9,1.6-1.7c0.7-0.8,1.2-1.3,1.3-1.6c0.1-0.3,0.2-0.5,0.2-0.6
			c0-0.1-0.1-0.3-0.2-0.4c-0.2-0.1-0.4-0.2-0.6-0.2c-0.2,0-0.4-0.1-0.4-0.2c0-0.1,0.1-0.2,0.3-0.2c0,0,0.1,0,0.2,0c0.2,0,0.9,0,2,0
			c0.8,0,1.3,0,1.6,0c0.3,0,0.5,0.1,0.5,0.2c0,0.1-0.1,0.2-0.3,0.2c-0.6,0.1-1.1,0.2-1.5,0.5c-0.4,0.2-1.1,0.8-2,1.6
			c-0.9,0.9-1.6,1.7-2.3,2.5c0.7,0,1.3,0.1,1.8,0.3c0.5,0.2,0.9,0.5,1.2,1c0.3,0.5,0.6,1.3,0.8,2.5c0.4,2,1.1,3,2.2,3.1
			c0.2,0,0.4,0.1,0.4,0.2c0,0.1-0.1,0.1-0.2,0.1l-0.8,0c-1.3,0-2,0-2.2,0c-0.3-0.4-0.5-0.8-0.6-1.2c-0.1-0.4-0.2-1.1-0.4-2
			c-0.1-0.8-0.4-1.6-0.7-2.4C35.4,7,35,6.7,34.3,6.7c-0.4,0-0.9,0.1-1.4,0.4s-0.7,0.5-0.8,0.6s-0.1,1-0.1,2.4c0,1,0,1.7,0.1,1.9
			c0.1,0.2,0.2,0.4,0.4,0.6c0.2,0.1,0.5,0.2,0.9,0.3c0.2,0,0.3,0.1,0.3,0.2c0,0.1-0.1,0.2-0.2,0.2l-0.1,0c-0.2,0-0.8,0-1.9,0
			c-1.3,0-2,0-2.2,0c-0.1,0-0.2,0-0.2,0c-0.1,0-0.2-0.1-0.2-0.2c0-0.1,0.1-0.2,0.3-0.2c0.3,0,0.6-0.1,0.7-0.3s0.3-0.3,0.3-0.5
			c0-0.2,0.1-0.8,0.2-1.8s0.1-1.9,0.1-2.6c0-0.9,0-1.7,0-2.3c0-0.6-0.1-1.3-0.1-2.1c-0.1-0.7-0.1-1.2-0.2-1.3
			C30.1,2,30,1.8,29.9,1.8c-0.1-0.1-0.4-0.2-0.9-0.2c-0.2,0-0.2-0.1-0.2-0.2c0-0.1,0.1-0.2,0.4-0.2l0.7,0l3.3,0
			c0.2,0,0.2,0.1,0.2,0.2c0,0.1,0,0.1-0.1,0.1c-0.1,0-0.2,0.1-0.5,0.1c-0.3,0-0.5,0.1-0.5,0.1s-0.1,0.1-0.2,0.2S32,2.2,32,2.5
			C32,3.2,32.1,4.7,32.1,7.1z"/>
		<path d="M43.6,1.1l1.7,0l2.6,0c0.3,0,0.5,0.1,0.5,0.2c0,0.1-0.1,0.2-0.2,0.2c-0.7,0.1-1.1,0.3-1.3,0.7s-0.3,1.9-0.3,4.5
			c0,1,0,2,0.1,3.2s0.1,1.9,0.2,2.1s0.2,0.4,0.4,0.6s0.5,0.3,1,0.3c0.2,0,0.2,0.1,0.2,0.2c0,0.1-0.1,0.2-0.2,0.2l-2.3,0l-1.9,0
			c-0.2,0-0.3-0.1-0.3-0.2c0-0.1,0.1-0.2,0.3-0.2c0.6,0,0.9-0.2,1-0.6s0.1-1.5,0.1-3.5c0-1.9,0-3.5-0.1-4.7c0-1.2-0.1-1.9-0.3-2.2
			s-0.5-0.4-0.9-0.5c-0.2,0-0.3-0.1-0.3-0.2C43.4,1.2,43.4,1.1,43.6,1.1z"/>
		<path d="M54.2,1.3c0.4,0.5,1,1.3,1.9,2.3L59,7l2.8,3.3C61.9,9.2,62,7.7,62,6c0-1.3,0-2.2-0.1-2.7c-0.1-0.5-0.3-0.8-0.6-1.1
			c-0.4-0.3-0.8-0.5-1.3-0.5c-0.2,0-0.4-0.1-0.4-0.2c0-0.1,0-0.1,0.1-0.1s0.5-0.1,1.2-0.1c0.8,0,1.4,0,2,0l1.2,0h0.2
			c0.2,0,0.3,0.1,0.3,0.2c0,0.1-0.1,0.2-0.2,0.2c-0.6,0.1-1.1,0.2-1.3,0.5c-0.3,0.3-0.4,0.6-0.5,1.1S62.4,5.3,62.4,8l-0.1,4.9
			c0,0.2-0.1,0.4-0.2,0.4c0,0-0.1,0-0.1,0c-0.1,0-0.3-0.3-0.8-0.9s-1.1-1.3-1.8-2.1c-0.7-0.8-1.3-1.5-1.7-2
			c-0.9-1.1-1.5-1.8-1.7-2.1c-0.9-0.9-1.4-1.6-1.6-1.8C54.2,4.1,54.1,4,54,4c-0.1,0-0.1,0.1-0.1,0.4l0,1.4c0,1.8,0,3.3,0.1,4.3
			c0.1,1.1,0.2,1.7,0.3,1.9s0.3,0.4,0.6,0.6c0.3,0.2,0.6,0.3,0.9,0.3c0.4,0,0.6,0.1,0.6,0.2c0,0.1-0.1,0.2-0.3,0.2l-4.4,0
			c-0.2,0-0.3-0.1-0.3-0.2c0-0.1,0.1-0.2,0.3-0.2c0.8,0,1.3-0.2,1.5-0.5c0.3-0.3,0.4-1,0.4-2.1l-0.1-3.2c0-1.9,0-3-0.2-3.4
			S53,2.9,52.6,2.4c-0.4-0.5-0.8-0.8-1.2-0.8c-0.2,0-0.3-0.1-0.3-0.2c0-0.1,0.1-0.2,0.4-0.2L54.2,1.3z"/>
		<path d="M73.7,1.9C73.8,1.7,74,1.5,74,1.4c0-0.1,0.1-0.2,0.2-0.2c0,0,0.1,0,0.2,0.1c0,0.2,0.1,0.7,0.2,1.3l0.2,1.7
			c0,0.1-0.1,0.2-0.2,0.2c-0.1,0-0.1-0.1-0.2-0.2c-0.3-0.8-0.8-1.5-1.4-2c-0.6-0.5-1.3-0.8-2.1-0.8c-0.7,0-1.3,0.2-1.7,0.7
			s-0.6,0.9-0.6,1.4c0,0.6,0.2,1.1,0.6,1.4c0.4,0.3,1.3,0.7,2.5,1.1c0.9,0.3,1.7,0.6,2.1,0.9c0.5,0.3,0.9,0.7,1.2,1.2
			c0.3,0.5,0.5,1,0.5,1.6c0,1-0.4,1.8-1.2,2.6c-0.8,0.8-1.8,1.2-3,1.2c-1.1,0-2.1-0.3-3.2-1c-0.2,0.2-0.3,0.4-0.4,0.6
			c0,0.2-0.1,0.3-0.2,0.3c-0.1,0-0.2-0.1-0.2-0.4s-0.1-1.4-0.3-3.6c0-0.1,0.1-0.1,0.2-0.1c0.1,0,0.2,0.1,0.2,0.2
			c0.9,2.4,2.3,3.6,4,3.6c0.8,0,1.5-0.3,2-0.8s0.7-1.1,0.7-1.7c0-0.5-0.1-0.9-0.4-1.3s-0.6-0.7-1-0.9s-1.1-0.5-2-0.8
			c-1.2-0.4-2-0.7-2.4-1.1s-0.7-0.7-0.9-1.1c-0.2-0.4-0.3-0.8-0.3-1.2c0-0.8,0.4-1.5,1.1-2.2C69,1.4,69.9,1.1,71,1.1
			c0.4,0,0.8,0.1,1.3,0.2S73.2,1.6,73.7,1.9z"/>
		<path d="M87.8,7.5c0,0.3,0,0.7-0.1,1.2c0,0.3,0,0.5,0,0.8c0,0.2,0,0.7,0,1.4c0,0.7,0.1,1.1,0.1,1.3s0.2,0.3,0.4,0.5
			c0.2,0.2,0.5,0.2,0.7,0.3c0.3,0,0.4,0.1,0.4,0.2c0,0.1,0,0.1-0.1,0.2s-0.4,0-1,0l-2.5,0c-0.7,0-1.1,0-1.1,0c0,0-0.1-0.1-0.1-0.1
			c0-0.1,0.1-0.2,0.4-0.2c0.4-0.1,0.7-0.2,0.9-0.4c0.2-0.2,0.3-0.6,0.3-1.3c0-0.6,0.1-1.4,0.1-2.2l0-2.5l0-2.7
			c0-0.9-0.1-1.5-0.2-1.8c-0.1-0.3-0.4-0.4-0.8-0.5c-0.4-0.1-0.6-0.2-0.6-0.3s0.1-0.2,0.3-0.2l1.8,0l2.9,0c1.9,0,3.2,0.3,3.9,0.9
			s1,1.4,1,2.3c0,1.1-0.4,1.9-1.3,2.4c-0.9,0.5-2.2,0.8-3.9,0.8C88.9,7.5,88.4,7.5,87.8,7.5z M87.8,7.1c0.9,0,1.4,0,1.5,0
			c0.6,0,1.2-0.1,1.8-0.3c0.6-0.2,1-0.6,1.2-1.2s0.4-1.1,0.4-1.7c0-0.7-0.2-1.3-0.7-1.8s-1.3-0.7-2.5-0.7c-0.6,0-1.2,0.1-1.7,0.2
			c0,0.2,0,0.4,0,0.4l0,2.1l0,2.3C87.8,6.6,87.8,6.8,87.8,7.1z"/>
		<path d="M104.4,7.1c0.9,0.4,1.4,0.8,1.8,1.2c0.3,0.4,0.6,1,0.7,1.9c0.2,1.1,0.5,1.8,0.9,2.2c0.4,0.4,0.8,0.6,1.4,0.6
			c0.2,0,0.2,0.1,0.2,0.2s-0.1,0.2-0.3,0.2c-1.7,0-2.8-0.1-3.1-0.2c-0.4-0.1-0.6-0.7-0.8-1.9c-0.2-1.1-0.3-1.9-0.5-2.4
			c-0.2-0.5-0.5-0.9-0.9-1.2c-0.4-0.3-1-0.4-1.9-0.4c-0.3,0-0.7,0-1.1,0.1c0,0.4,0,0.8,0,1.2c0,1.6,0,2.6,0.1,3.1
			c0,0.5,0.2,0.8,0.4,1c0.2,0.2,0.6,0.3,1.1,0.3c0.2,0,0.3,0.1,0.3,0.2c0,0.1-0.1,0.2-0.4,0.2h-4.6c-0.3,0-0.4-0.1-0.4-0.2
			c0-0.1,0.1-0.2,0.3-0.2c0.5,0,0.8-0.1,1-0.2s0.3-0.4,0.4-0.7s0.2-0.8,0.2-1.6l0-1.9l0-2.9c0-1.5,0-2.4-0.1-2.9
			c-0.1-0.5-0.2-0.8-0.3-1c-0.2-0.2-0.5-0.3-1.2-0.4c-0.1,0-0.2-0.1-0.2-0.2c0-0.1,0.1-0.1,0.4-0.1l5.5-0.1c1.5,0,2.6,0.3,3.3,0.9
			c0.7,0.6,1,1.3,1,2.1c0,0.5-0.1,1-0.4,1.4c-0.3,0.4-0.6,0.8-1,0.9C105.8,6.6,105.2,6.9,104.4,7.1z M100.9,6.9
			c1.2,0,2.1-0.1,2.7-0.2c0.6-0.1,1.1-0.5,1.5-0.9c0.4-0.5,0.6-1,0.6-1.7c0-0.7-0.2-1.3-0.7-1.8s-1.2-0.8-2.2-0.8
			c-0.6,0-1.2,0.1-1.8,0.2c-0.1,1.7-0.1,3-0.1,4C100.9,6,100.9,6.4,100.9,6.9z"/>
		<path d="M121.5,1.3c0.2,0.7,0.4,1.7,0.5,2.9c0,0-0.1,0.1-0.1,0.1c0,0-0.1,0-0.1-0.1c-0.4-0.7-0.8-1.2-1.2-1.6s-0.8-0.6-1.2-0.8
			s-1.1-0.2-2-0.2c-0.9,0-1.6,0.1-2.1,0.2c0,0.1-0.1,0.2-0.1,0.3c0,0,0,0.1,0,0.2c-0.1,0.5-0.1,1.8-0.1,4c0,0.1,0,0.2,0,0.4
			c0.5,0,0.8,0,1,0c0.8,0,1.3-0.1,1.7-0.3c0.3-0.2,0.6-0.7,0.9-1.5c0-0.1,0.1-0.2,0.2-0.2c0.1,0,0.2,0.1,0.2,0.3l0,0.4
			c0,0.5-0.1,1-0.1,1.5c0,0.8,0,1.6,0,2.3c0,0.2-0.1,0.3-0.2,0.3c-0.1,0-0.1-0.1-0.2-0.2c-0.1-0.7-0.4-1.2-0.8-1.6
			c-0.4-0.3-1.3-0.5-2.7-0.5c0,0.4,0,1.2,0,2.2c0,1.3,0,2.1,0.1,2.5s0.3,0.6,0.7,0.8c0.4,0.2,0.9,0.3,1.8,0.3c2.4,0,3.9-0.8,4.6-2.5
			c0.1-0.2,0.2-0.3,0.3-0.3c0.1,0,0.1,0.1,0.1,0.2c0,0.1,0,0.2,0,0.2c0,0.1-0.1,0.6-0.3,1.3c0,0.2-0.1,0.6-0.4,1.4l-3.9,0
			c-0.6,0-1.4,0-2.4-0.1c-1.1,0-2-0.1-2.8-0.1c-0.8,0-1.3,0-1.3-0.1c0,0-0.1-0.1-0.1-0.1c0-0.1,0.1-0.2,0.3-0.2
			c0.7,0,1.1-0.2,1.3-0.5c0.2-0.4,0.3-1.2,0.3-2.6l0-1.9l0-1.8c0-0.4,0-1-0.1-2c0-1-0.1-1.6-0.1-1.7c0-0.1-0.1-0.3-0.3-0.4
			c-0.2-0.1-0.5-0.3-1-0.4c-0.2,0-0.2-0.1-0.2-0.2c0-0.1,0.1-0.2,0.3-0.2l1.9,0.1c0.7,0,2.3,0,4.9,0C120.6,1.3,121.4,1.3,121.5,1.3z
			"/>
		<path d="M132.1,1.9c0.2-0.2,0.3-0.3,0.3-0.5c0-0.1,0.1-0.2,0.2-0.2c0,0,0.1,0,0.2,0.1c0,0.2,0.1,0.7,0.2,1.3l0.2,1.7
			c0,0.1-0.1,0.2-0.2,0.2c-0.1,0-0.1-0.1-0.2-0.2c-0.3-0.8-0.8-1.5-1.4-2c-0.6-0.5-1.3-0.8-2.1-0.8c-0.7,0-1.3,0.2-1.7,0.7
			S127,3.1,127,3.6c0,0.6,0.2,1.1,0.6,1.4c0.4,0.3,1.3,0.7,2.5,1.1c0.9,0.3,1.7,0.6,2.1,0.9c0.5,0.3,0.9,0.7,1.2,1.2
			c0.3,0.5,0.5,1,0.5,1.6c0,1-0.4,1.8-1.2,2.6c-0.8,0.8-1.8,1.2-3,1.2c-1.1,0-2.1-0.3-3.2-1c-0.2,0.2-0.3,0.4-0.4,0.6
			c0,0.2-0.1,0.3-0.2,0.3c-0.1,0-0.2-0.1-0.2-0.4s-0.1-1.4-0.3-3.6c0-0.1,0.1-0.1,0.2-0.1c0.1,0,0.2,0.1,0.2,0.2
			c0.9,2.4,2.3,3.6,4,3.6c0.8,0,1.5-0.3,2-0.8s0.7-1.1,0.7-1.7c0-0.5-0.1-0.9-0.4-1.3s-0.6-0.7-1-0.9s-1.1-0.5-2-0.8
			c-1.2-0.4-2-0.7-2.4-1.1s-0.7-0.7-0.9-1.1c-0.2-0.4-0.3-0.8-0.3-1.2c0-0.8,0.4-1.5,1.1-2.2c0.7-0.6,1.6-0.9,2.7-0.9
			c0.4,0,0.8,0.1,1.3,0.2S131.6,1.6,132.1,1.9z"/>
		<path d="M143.3,1.9c0.2-0.2,0.3-0.3,0.3-0.5c0-0.1,0.1-0.2,0.2-0.2c0,0,0.1,0,0.2,0.1c0,0.2,0.1,0.7,0.2,1.3l0.2,1.7
			c0,0.1-0.1,0.2-0.2,0.2c-0.1,0-0.1-0.1-0.2-0.2c-0.3-0.8-0.8-1.5-1.4-2c-0.6-0.5-1.3-0.8-2.1-0.8c-0.7,0-1.3,0.2-1.7,0.7
			s-0.6,0.9-0.6,1.4c0,0.6,0.2,1.1,0.6,1.4c0.4,0.3,1.3,0.7,2.5,1.1c0.9,0.3,1.7,0.6,2.1,0.9c0.5,0.3,0.9,0.7,1.2,1.2
			c0.3,0.5,0.5,1,0.5,1.6c0,1-0.4,1.8-1.2,2.6c-0.8,0.8-1.8,1.2-3,1.2c-1.1,0-2.1-0.3-3.2-1c-0.2,0.2-0.3,0.4-0.4,0.6
			c0,0.2-0.1,0.3-0.2,0.3c-0.1,0-0.2-0.1-0.2-0.4s-0.1-1.4-0.3-3.6c0-0.1,0.1-0.1,0.2-0.1c0.1,0,0.2,0.1,0.2,0.2
			c0.9,2.4,2.3,3.6,4,3.6c0.8,0,1.5-0.3,2-0.8s0.7-1.1,0.7-1.7c0-0.5-0.1-0.9-0.4-1.3s-0.6-0.7-1-0.9s-1.1-0.5-2-0.8
			c-1.2-0.4-2-0.7-2.4-1.1s-0.7-0.7-0.9-1.1c-0.2-0.4-0.3-0.8-0.3-1.2c0-0.8,0.4-1.5,1.1-2.2c0.7-0.6,1.6-0.9,2.7-0.9
			c0.4,0,0.8,0.1,1.3,0.2S142.8,1.6,143.3,1.9z"/>
		<path d="M157.5,7.1l0,2.3c0,1.6,0,2.5,0.1,2.7s0.2,0.4,0.3,0.6c0.2,0.2,0.5,0.3,1,0.3c0.3,0,0.4,0.1,0.4,0.2
			c0,0.1-0.1,0.2-0.3,0.2c-0.1,0-0.3,0-0.6,0c-0.6-0.1-1.2-0.1-1.7-0.1c-0.4,0-1,0-1.7,0.1l-0.5,0c-0.2,0-0.3-0.1-0.3-0.2
			c0-0.1,0.1-0.2,0.4-0.2c0.4,0,0.7-0.1,0.8-0.3c0.2-0.2,0.3-0.8,0.3-1.7c0.1-0.9,0.1-2.1,0.1-3.6c0-1.4,0-2.5-0.1-3.3
			c0-0.8-0.1-1.3-0.2-1.6c-0.1-0.3-0.2-0.4-0.4-0.5s-0.5-0.2-1-0.2c-0.2,0-0.3-0.1-0.3-0.2c0-0.1,0.1-0.1,0.3-0.2
			c1.5-0.1,4.4-0.2,8.7-0.2c0.7,0,1.1,0,1.2,0s0.1,0.1,0.1,0.1c0,0.1,0.1,0.5,0.2,1.3s0.2,1.2,0.2,1.2c0,0.1-0.1,0.2-0.2,0.2
			c-0.1,0-0.2-0.1-0.2-0.2c-0.9-1.5-2.3-2.3-4.2-2.3c-0.7,0-1.2,0-1.6,0.1c-0.4,0.1-0.7,0.1-0.7,0.2c-0.1,0.1-0.1,0.5-0.1,1.2
			s0,1.9,0,3.6c0.5,0,0.8,0,1,0c0.9,0,1.5-0.2,1.8-0.6c0.3-0.4,0.5-0.8,0.5-1.2c0-0.3,0.1-0.4,0.2-0.4c0.1,0,0.2,0.1,0.2,0.3
			c0,0.1,0,0.1,0,0.2c0,0.4-0.1,1.3-0.1,2.7v1.1c0,0.3-0.1,0.4-0.2,0.4c-0.1,0-0.2-0.1-0.2-0.3c0-0.6-0.2-1-0.5-1.4
			c-0.3-0.4-1-0.5-2-0.5C158.2,7.1,157.9,7.1,157.5,7.1z"/>
		<path d="M167.4,7.2c0-0.8,0.3-1.7,0.8-2.7s1.2-1.8,2.2-2.5c1-0.6,2.1-1,3.3-1c1.7,0,3.1,0.6,4.2,1.8c1.1,1.2,1.7,2.6,1.7,4.2
			c0,1.7-0.6,3.1-1.8,4.5c-1.2,1.3-2.7,2-4.4,2c-1.7,0-3-0.6-4.2-1.7S167.4,9,167.4,7.2z M169.5,6.9c0,1,0.2,2,0.5,3.1
			c0.3,1.1,0.8,1.8,1.4,2.3s1.4,0.7,2.1,0.7c1.2,0,2.2-0.6,2.9-1.8c0.7-1.2,1.1-2.5,1.1-4.1c0-1.5-0.4-2.8-1.1-4
			c-0.7-1.1-1.7-1.7-2.9-1.7c-0.9,0-1.7,0.3-2.3,0.9c-0.6,0.6-1,1.3-1.3,2.2S169.5,6.2,169.5,6.9z"/>
		<path d="M182.7,1.2h4.6c0.3,0,0.4,0.1,0.4,0.2c0,0.1-0.1,0.2-0.3,0.2c-0.4,0-0.8,0.2-1,0.4s-0.4,0.5-0.5,1s-0.2,1.6-0.2,3.2
			c0,2,0.1,3.3,0.2,4.1c0.1,0.8,0.5,1.4,1.1,1.8c0.6,0.4,1.4,0.7,2.4,0.7c1.1,0,1.9-0.2,2.5-0.6c0.6-0.4,0.9-1,1.1-1.8
			c0.2-0.8,0.3-2.6,0.3-5.3c0-1.4-0.1-2.3-0.4-2.7c-0.3-0.4-0.7-0.6-1.3-0.6c-0.2,0-0.3-0.1-0.3-0.2c0-0.1,0.2-0.2,0.5-0.2h3.7
			c0.2,0,0.2,0.1,0.2,0.2c0,0.1-0.1,0.1-0.2,0.2c-0.5,0.1-0.8,0.2-1,0.4c-0.2,0.2-0.4,0.6-0.4,1.2s-0.1,1.5-0.1,2.6
			c0,1.4-0.1,2.7-0.2,3.7c-0.1,1-0.3,1.8-0.7,2.3c-0.4,0.5-0.9,0.9-1.6,1.2c-0.7,0.3-1.6,0.5-2.6,0.5c-1.1,0-2-0.2-2.7-0.5
			c-0.8-0.3-1.3-0.8-1.5-1.4c-0.3-0.6-0.4-1.4-0.4-2.5l0-2.6c0-2.3-0.1-3.7-0.3-4.2c-0.2-0.5-0.6-0.8-1.2-0.8
			c-0.2,0-0.3-0.1-0.3-0.2C182.3,1.3,182.5,1.2,182.7,1.2z"/>
		<path d="M200.9,1.3c0.4,0.5,1,1.3,1.9,2.3l2.9,3.4l2.8,3.3c0.1-1.1,0.1-2.6,0.1-4.3c0-1.3,0-2.2-0.1-2.7c-0.1-0.5-0.3-0.8-0.6-1.1
			c-0.4-0.3-0.8-0.5-1.3-0.5c-0.2,0-0.4-0.1-0.4-0.2c0-0.1,0-0.1,0.1-0.1s0.5-0.1,1.2-0.1c0.8,0,1.4,0,2,0l1.2,0h0.2
			c0.2,0,0.3,0.1,0.3,0.2c0,0.1-0.1,0.2-0.2,0.2c-0.6,0.1-1.1,0.2-1.3,0.5c-0.3,0.3-0.4,0.6-0.5,1.1s-0.1,2.1-0.1,4.8l-0.1,4.9
			c0,0.2-0.1,0.4-0.2,0.4c0,0-0.1,0-0.1,0c-0.1,0-0.3-0.3-0.8-0.9s-1.1-1.3-1.8-2.1c-0.7-0.8-1.3-1.5-1.7-2
			c-0.9-1.1-1.5-1.8-1.7-2.1c-0.9-0.9-1.4-1.6-1.6-1.8C201,4.1,200.9,4,200.8,4c-0.1,0-0.1,0.1-0.1,0.4l0,1.4c0,1.8,0,3.3,0.1,4.3
			c0.1,1.1,0.2,1.7,0.3,1.9s0.3,0.4,0.6,0.6c0.3,0.2,0.6,0.3,0.9,0.3c0.4,0,0.6,0.1,0.6,0.2c0,0.1-0.1,0.2-0.3,0.2l-4.4,0
			c-0.2,0-0.3-0.1-0.3-0.2c0-0.1,0.1-0.2,0.3-0.2c0.8,0,1.3-0.2,1.5-0.5c0.3-0.3,0.4-1,0.4-2.1l-0.1-3.2c0-1.9,0-3-0.2-3.4
			s-0.3-0.8-0.7-1.2c-0.4-0.5-0.8-0.8-1.2-0.8c-0.2,0-0.3-0.1-0.3-0.2c0-0.1,0.1-0.2,0.4-0.2L200.9,1.3z"/>
		<path d="M217.4,1.2l1.9,0c2.4,0,4.2,0.6,5.4,1.8s1.8,2.6,1.8,4.4c0,1.3-0.3,2.4-0.9,3.3s-1.3,1.6-2.2,2.1
			c-0.9,0.5-2.1,0.7-3.5,0.7c-0.3,0-0.8,0-1.3-0.1c-0.9-0.1-1.4-0.1-1.5-0.1c-2,0-3.2,0-3.6,0.1c-0.2,0-0.3-0.1-0.3-0.2
			c0-0.1,0-0.1,0.1-0.1s0.3-0.1,0.7-0.1c0.5-0.1,0.8-0.3,1-0.6c0.2-0.3,0.3-1.3,0.4-3l0.1-4.9c0-0.6,0-1.1-0.1-1.6
			c-0.1-0.5-0.2-0.9-0.4-1c-0.2-0.2-0.4-0.3-0.8-0.3c-0.3,0-0.4-0.1-0.4-0.2c0-0.1,0.1-0.2,0.2-0.2c0.1,0,0.5,0,1.1,0.1
			C216,1.2,216.7,1.2,217.4,1.2z M217.1,10.1c0,0.8,0.1,1.4,0.2,1.7c0.1,0.3,0.3,0.6,0.7,0.9c0.4,0.2,0.9,0.3,1.7,0.3
			c1.1,0,2-0.3,2.7-0.8c0.7-0.5,1.2-1.2,1.6-2.1c0.4-0.9,0.6-1.8,0.6-2.8c0-1.5-0.4-2.8-1.3-4s-2.3-1.8-4.2-1.8
			c-0.8,0-1.3,0-1.5,0.1c-0.1,0.1-0.2,0.2-0.2,0.5c0,0.2,0,0.7-0.1,1.3c-0.1,0.9-0.1,1.6-0.1,2.1l-0.1,2.5
			C217.1,9.3,217.1,10,217.1,10.1z"/>
		<path d="M234.1,1h0.4c0.7,1.4,1.6,3.8,2.8,7.2c0.8,2.2,1.3,3.5,1.6,4c0.3,0.5,0.8,0.8,1.4,0.8c0.2,0,0.3,0.1,0.3,0.2
			c0,0.1-0.1,0.1-0.2,0.1l-0.1,0c-0.6,0-1.3-0.1-2.2-0.1c-1.3,0-2.2,0-2.6,0.1c-0.2,0-0.3-0.1-0.3-0.2c0-0.1,0.1-0.1,0.2-0.1
			c0.5,0,0.9-0.1,1.1-0.3c0.2-0.1,0.3-0.3,0.3-0.6c0-0.3-0.2-0.9-0.6-2l-0.5-1.6c-0.3,0-1.7,0-4.3,0.1c-0.6,1.7-1,2.8-1,3.2
			c0,0.4,0.2,0.7,0.5,0.8s0.6,0.3,0.9,0.3c0.2,0,0.3,0.1,0.3,0.2c0,0,0,0.1-0.1,0.1c-1,0-1.6-0.1-1.8-0.1c-1,0-1.7,0-2.1,0
			c-0.2,0-0.3-0.1-0.3-0.2c0-0.1,0.1-0.2,0.3-0.2c0.7-0.1,1.2-0.6,1.6-1.4s1-2.4,1.8-4.7C232.4,4.8,233.2,2.9,234.1,1z M233.7,3
			c-0.6,1.2-1.2,2.9-2,5.1c0.6,0,1.1,0,1.4,0l2.6,0c-0.2-0.6-0.5-1.5-1-2.5C234.2,4.3,233.9,3.4,233.7,3z"/>
		<path d="M246.7,1.7c-0.5,0-0.8,0-1,0c-1.3,0-2.3,0.3-2.9,0.8s-0.9,1-1,1.5c0,0.2-0.1,0.2-0.2,0.2c-0.1,0-0.1,0-0.2-0.1
			c0-0.7,0.2-1.7,0.4-3c0.3,0,0.5,0,0.6,0c0.5,0,1.1,0,1.9,0.1c0.9,0,2.2,0.1,4,0.1c1.8,0,3,0,3.6-0.1c0.5,0,1.2-0.1,2.1-0.1
			c0.1,0.4,0.1,0.9,0.1,1.4c0,0.5,0.1,0.9,0.1,1.2c0,0,0,0.1,0,0.2c0,0.1-0.1,0.2-0.2,0.2c-0.1,0-0.1,0-0.2-0.1
			c-0.1-0.1-0.2-0.2-0.4-0.5c-0.3-0.5-0.7-0.9-1-1.1c-0.3-0.3-0.7-0.4-1.2-0.5s-1.3-0.1-2.6-0.1c-0.1,0.9-0.1,2-0.1,3.2
			c0,3.9,0.1,6.3,0.3,7c0.2,0.7,0.8,1.1,1.8,1.1c0.3,0,0.4,0.1,0.4,0.2c0,0.1-0.1,0.2-0.4,0.2h-5.7c-0.1,0-0.2-0.1-0.2-0.2
			c0-0.1,0.1-0.2,0.4-0.2c0.5,0,0.9-0.1,1.2-0.4c0.3-0.3,0.5-0.6,0.5-1.1c0-0.5,0.1-1.8,0.1-4C246.9,5.5,246.8,3.6,246.7,1.7z"/>
		<path d="M257.2,1.1l1.7,0l2.6,0c0.3,0,0.5,0.1,0.5,0.2c0,0.1-0.1,0.2-0.2,0.2c-0.7,0.1-1.1,0.3-1.3,0.7s-0.3,1.9-0.3,4.5
			c0,1,0,2,0.1,3.2s0.1,1.9,0.2,2.1s0.2,0.4,0.4,0.6s0.5,0.3,1,0.3c0.2,0,0.2,0.1,0.2,0.2c0,0.1-0.1,0.2-0.2,0.2l-2.3,0l-1.9,0
			c-0.2,0-0.3-0.1-0.3-0.2c0-0.1,0.1-0.2,0.3-0.2c0.6,0,0.9-0.2,1-0.6s0.1-1.5,0.1-3.5c0-1.9,0-3.5-0.1-4.7c0-1.2-0.1-1.9-0.3-2.2
			s-0.5-0.4-0.9-0.5c-0.2,0-0.3-0.1-0.3-0.2C257,1.2,257.1,1.1,257.2,1.1z"/>
		<path d="M265.2,7.2c0-0.8,0.3-1.7,0.8-2.7s1.2-1.8,2.2-2.5c1-0.6,2.1-1,3.3-1c1.7,0,3.1,0.6,4.2,1.8c1.1,1.2,1.7,2.6,1.7,4.2
			c0,1.7-0.6,3.1-1.8,4.5c-1.2,1.3-2.7,2-4.4,2c-1.7,0-3-0.6-4.2-1.7S265.2,9,265.2,7.2z M267.3,6.9c0,1,0.2,2,0.5,3.1
			c0.3,1.1,0.8,1.8,1.4,2.3s1.4,0.7,2.1,0.7c1.2,0,2.2-0.6,2.9-1.8c0.7-1.2,1.1-2.5,1.1-4.1c0-1.5-0.4-2.8-1.1-4
			c-0.7-1.1-1.7-1.7-2.9-1.7c-0.9,0-1.7,0.3-2.3,0.9c-0.6,0.6-1,1.3-1.3,2.2S267.3,6.2,267.3,6.9z"/>
		<path d="M282.9,1.3c0.4,0.5,1,1.3,1.9,2.3l2.9,3.4l2.8,3.3c0.1-1.1,0.1-2.6,0.1-4.3c0-1.3,0-2.2-0.1-2.7c-0.1-0.5-0.3-0.8-0.6-1.1
			c-0.4-0.3-0.8-0.5-1.3-0.5c-0.2,0-0.4-0.1-0.4-0.2c0-0.1,0-0.1,0.1-0.1s0.5-0.1,1.2-0.1c0.8,0,1.4,0,2,0l1.2,0h0.2
			c0.2,0,0.3,0.1,0.3,0.2c0,0.1-0.1,0.2-0.2,0.2c-0.6,0.1-1.1,0.2-1.3,0.5c-0.3,0.3-0.4,0.6-0.5,1.1s-0.1,2.1-0.1,4.8l-0.1,4.9
			c0,0.2-0.1,0.4-0.2,0.4c0,0-0.1,0-0.1,0c-0.1,0-0.3-0.3-0.8-0.9s-1.1-1.3-1.8-2.1c-0.7-0.8-1.3-1.5-1.7-2
			c-0.9-1.1-1.5-1.8-1.7-2.1c-0.9-0.9-1.4-1.6-1.6-1.8C283,4.1,282.9,4,282.8,4c-0.1,0-0.1,0.1-0.1,0.4l0,1.4c0,1.8,0,3.3,0.1,4.3
			c0.1,1.1,0.2,1.7,0.3,1.9s0.3,0.4,0.6,0.6c0.3,0.2,0.6,0.3,0.9,0.3c0.4,0,0.6,0.1,0.6,0.2c0,0.1-0.1,0.2-0.3,0.2l-4.4,0
			c-0.2,0-0.3-0.1-0.3-0.2c0-0.1,0.1-0.2,0.3-0.2c0.8,0,1.3-0.2,1.5-0.5c0.3-0.3,0.4-1,0.4-2.1l-0.1-3.2c0-1.9,0-3-0.2-3.4
			s-0.3-0.8-0.7-1.2c-0.4-0.5-0.8-0.8-1.2-0.8c-0.2,0-0.3-0.1-0.3-0.2c0-0.1,0.1-0.2,0.4-0.2L282.9,1.3z"/>
	</g>
</g>
</svg>
